<svg xmlns="http://www.w3.org/2000/svg" viewBox="0 71 420 715" width="420" height="715" role="img"><title>circuits/s1-inputs.svg</title><defs><marker id="arrow" viewBox="0 0 10 10" refX="8" refY="5" markerWidth="7" markerHeight="7" orient="auto-start-reverse"><path d="M0 0 L10 5 L0 10z" fill="#2f6fb5"/></marker></defs><rect x="0" y="71" width="420" height="715" fill="#fbfaf6"/><polygon points="46,124 122,124 122,633 46,633 52,621 46,609 52,597 46,585 52,573 46,561 52,549 46,537 52,525 46,513 52,501 46,489 52,477 46,465 52,453 46,441 52,429 46,417 52,405 46,393 52,381 46,369 52,357 46,345 52,333 46,321 52,309 46,297 52,285 46,273 52,261 46,249 52,237 46,225 52,213 46,201 52,189 46,177 52,165 46,153 52,141 46,129" fill="#397750" stroke="#292b3b" stroke-width="2" stroke-linejoin="round"/><rect x="54" y="137" width="54" height="484" rx="2" fill="#242a30" stroke="#292b3b" stroke-width="2"/><circle cx="66" cy="151" r="4" fill="#daba6d" stroke="none" stroke-width="2"/><rect x="58" y="143" width="16" height="16" rx="1" fill="#353b44" stroke="#8754ad" stroke-width="2"/><circle cx="94" cy="151" r="4" fill="#daba6d" stroke="none" stroke-width="2"/><circle cx="66" cy="175" r="4" fill="#daba6d" stroke="none" stroke-width="2"/><text x="40" y="183" font-family="Arial,Helvetica,sans-serif" font-size="22" fill="#5c6070" font-weight="400" text-anchor="end">3</text><circle cx="94" cy="175" r="4" fill="#daba6d" stroke="none" stroke-width="2"/><circle cx="66" cy="199" r="4" fill="#daba6d" stroke="none" stroke-width="2"/><text x="40" y="207" font-family="Arial,Helvetica,sans-serif" font-size="22" fill="#5c6070" font-weight="400" text-anchor="end">5</text><circle cx="94" cy="199" r="4" fill="#daba6d" stroke="none" stroke-width="2"/><rect x="86" y="191" width="16" height="16" rx="1" fill="#353b44" stroke="#26262b" stroke-width="2"/><circle cx="66" cy="223" r="4" fill="#daba6d" stroke="none" stroke-width="2"/><text x="40" y="231" font-family="Arial,Helvetica,sans-serif" font-size="22" fill="#5c6070" font-weight="400" text-anchor="end">7</text><circle cx="94" cy="223" r="4" fill="#daba6d" stroke="none" stroke-width="2"/><circle cx="66" cy="247" r="4" fill="#daba6d" stroke="none" stroke-width="2"/><text x="40" y="255" font-family="Arial,Helvetica,sans-serif" font-size="22" fill="#5c6070" font-weight="400" text-anchor="end">9</text><circle cx="94" cy="247" r="4" fill="#daba6d" stroke="none" stroke-width="2"/><circle cx="66" cy="271" r="4" fill="#daba6d" stroke="none" stroke-width="2"/><text x="40" y="279" font-family="Arial,Helvetica,sans-serif" font-size="22" fill="#5c6070" font-weight="400" text-anchor="end">11</text><circle cx="94" cy="271" r="4" fill="#daba6d" stroke="none" stroke-width="2"/><rect x="86" y="263" width="16" height="16" rx="1" fill="#353b44" stroke="#2f6fb5" stroke-width="2"/><circle cx="66" cy="295" r="4" fill="#daba6d" stroke="none" stroke-width="2"/><text x="40" y="303" font-family="Arial,Helvetica,sans-serif" font-size="22" fill="#5c6070" font-weight="400" text-anchor="end">13</text><circle cx="94" cy="295" r="4" fill="#daba6d" stroke="none" stroke-width="2"/><circle cx="66" cy="319" r="4" fill="#daba6d" stroke="none" stroke-width="2"/><text x="40" y="327" font-family="Arial,Helvetica,sans-serif" font-size="22" fill="#5c6070" font-weight="400" text-anchor="end">15</text><circle cx="94" cy="319" r="4" fill="#daba6d" stroke="none" stroke-width="2"/><circle cx="66" cy="343" r="4" fill="#daba6d" stroke="none" stroke-width="2"/><text x="40" y="351" font-family="Arial,Helvetica,sans-serif" font-size="22" fill="#5c6070" font-weight="400" text-anchor="end">17</text><circle cx="94" cy="343" r="4" fill="#daba6d" stroke="none" stroke-width="2"/><circle cx="66" cy="367" r="4" fill="#daba6d" stroke="none" stroke-width="2"/><text x="40" y="375" font-family="Arial,Helvetica,sans-serif" font-size="22" fill="#5c6070" font-weight="400" text-anchor="end">19</text><circle cx="94" cy="367" r="4" fill="#daba6d" stroke="none" stroke-width="2"/><circle cx="66" cy="391" r="4" fill="#daba6d" stroke="none" stroke-width="2"/><text x="40" y="399" font-family="Arial,Helvetica,sans-serif" font-size="22" fill="#5c6070" font-weight="400" text-anchor="end">21</text><circle cx="94" cy="391" r="4" fill="#daba6d" stroke="none" stroke-width="2"/><circle cx="66" cy="415" r="4" fill="#daba6d" stroke="none" stroke-width="2"/><text x="40" y="423" font-family="Arial,Helvetica,sans-serif" font-size="22" fill="#5c6070" font-weight="400" text-anchor="end">23</text><circle cx="94" cy="415" r="4" fill="#daba6d" stroke="none" stroke-width="2"/><circle cx="66" cy="439" r="4" fill="#daba6d" stroke="none" stroke-width="2"/><text x="40" y="447" font-family="Arial,Helvetica,sans-serif" font-size="22" fill="#5c6070" font-weight="400" text-anchor="end">25</text><circle cx="94" cy="439" r="4" fill="#daba6d" stroke="none" stroke-width="2"/><circle cx="66" cy="463" r="4" fill="#daba6d" stroke="none" stroke-width="2"/><text x="40" y="471" font-family="Arial,Helvetica,sans-serif" font-size="22" fill="#5c6070" font-weight="400" text-anchor="end">27</text><circle cx="94" cy="463" r="4" fill="#daba6d" stroke="none" stroke-width="2"/><circle cx="66" cy="487" r="4" fill="#daba6d" stroke="none" stroke-width="2"/><text x="40" y="495" font-family="Arial,Helvetica,sans-serif" font-size="22" fill="#5c6070" font-weight="400" text-anchor="end">29</text><circle cx="94" cy="487" r="4" fill="#daba6d" stroke="none" stroke-width="2"/><circle cx="66" cy="511" r="4" fill="#daba6d" stroke="none" stroke-width="2"/><text x="40" y="519" font-family="Arial,Helvetica,sans-serif" font-size="22" fill="#5c6070" font-weight="400" text-anchor="end">31</text><circle cx="94" cy="511" r="4" fill="#daba6d" stroke="none" stroke-width="2"/><rect x="86" y="503" width="16" height="16" rx="1" fill="#353b44" stroke="#c8601d" stroke-width="2"/><circle cx="66" cy="535" r="4" fill="#daba6d" stroke="none" stroke-width="2"/><text x="40" y="543" font-family="Arial,Helvetica,sans-serif" font-size="22" fill="#5c6070" font-weight="400" text-anchor="end">33</text><circle cx="94" cy="535" r="4" fill="#daba6d" stroke="none" stroke-width="2"/><circle cx="66" cy="559" r="4" fill="#daba6d" stroke="none" stroke-width="2"/><text x="40" y="567" font-family="Arial,Helvetica,sans-serif" font-size="22" fill="#5c6070" font-weight="400" text-anchor="end">35</text><circle cx="94" cy="559" r="4" fill="#daba6d" stroke="none" stroke-width="2"/><circle cx="66" cy="583" r="4" fill="#daba6d" stroke="none" stroke-width="2"/><text x="40" y="591" font-family="Arial,Helvetica,sans-serif" font-size="22" fill="#5c6070" font-weight="400" text-anchor="end">37</text><circle cx="94" cy="583" r="4" fill="#daba6d" stroke="none" stroke-width="2"/><circle cx="66" cy="607" r="4" fill="#daba6d" stroke="none" stroke-width="2"/><text x="40" y="615" font-family="Arial,Helvetica,sans-serif" font-size="22" fill="#5c6070" font-weight="400" text-anchor="end">39</text><circle cx="94" cy="607" r="4" fill="#daba6d" stroke="none" stroke-width="2"/><text x="16" y="111" font-family="Arial,Helvetica,sans-serif" font-size="22" fill="#292b3b" font-weight="700" text-anchor="start">microSD end</text><rect x="52" y="641" width="62" height="40" rx="2" fill="#bfc7ca" stroke="#292b3b" stroke-width="2"/><rect x="62" y="653" width="42" height="16" rx="0" fill="#30383d" stroke="#292b3b" stroke-width="2"/><text x="126" y="669" font-family="Arial,Helvetica,sans-serif" font-size="22" fill="#292b3b" font-weight="700" text-anchor="start">USB end</text><text x="150" y="615" font-family="Arial,Helvetica,sans-serif" font-size="22" fill="#292b3b" font-weight="700" text-anchor="start">Board edge</text><path d="M148 607 L124 593" fill="none" stroke="#5c6070" stroke-width="1.5" stroke-linejoin="round" stroke-linecap="round"/><rect x="208" y="273" width="197" height="178" rx="10" fill="#283841" stroke="#292b3b" stroke-width="2"/><circle cx="307" cy="287" r="6" fill="#fbfaf6" stroke="#b19b61" stroke-width="3"/><circle cx="307" cy="437" r="6" fill="#fbfaf6" stroke="#b19b61" stroke-width="3"/><rect x="297" y="334" width="23" height="47" rx="2" fill="#181d24" stroke="#292b3b" stroke-width="2"/><rect x="212" y="287" width="27" height="34" rx="2" fill="#3c9e68" stroke="#21633f" stroke-width="2"/><circle cx="226" cy="304" r="8" fill="#c3cbce" stroke="#397351" stroke-width="2"/><path d="M220 300 L232 308" fill="none" stroke="#5d666c" stroke-width="2" stroke-linejoin="round" stroke-linecap="round"/><rect x="375" y="287" width="27" height="34" rx="2" fill="#3c9e68" stroke="#21633f" stroke-width="2"/><circle cx="389" cy="304" r="8" fill="#c3cbce" stroke="#397351" stroke-width="2"/><path d="M383 300 L395 308" fill="none" stroke="#5d666c" stroke-width="2" stroke-linejoin="round" stroke-linecap="round"/><text x="246" y="311" font-family="Arial,Helvetica,sans-serif" font-size="22" fill="#fff" font-weight="400" text-anchor="start">G</text><text x="367" y="311" font-family="Arial,Helvetica,sans-serif" font-size="22" fill="#fff" font-weight="400" text-anchor="end">G</text><rect x="212" y="325" width="27" height="34" rx="2" fill="#3c9e68" stroke="#21633f" stroke-width="2"/><circle cx="226" cy="342" r="8" fill="#c3cbce" stroke="#397351" stroke-width="2"/><path d="M220 338 L232 346" fill="none" stroke="#5d666c" stroke-width="2" stroke-linejoin="round" stroke-linecap="round"/><rect x="375" y="325" width="27" height="34" rx="2" fill="#3c9e68" stroke="#21633f" stroke-width="2"/><circle cx="389" cy="342" r="8" fill="#c3cbce" stroke="#397351" stroke-width="2"/><path d="M383 338 L395 346" fill="none" stroke="#5d666c" stroke-width="2" stroke-linejoin="round" stroke-linecap="round"/><text x="246" y="349" font-family="Arial,Helvetica,sans-serif" font-size="22" fill="#fff" font-weight="400" text-anchor="start">V</text><text x="367" y="349" font-family="Arial,Helvetica,sans-serif" font-size="22" fill="#fff" font-weight="400" text-anchor="end">D5</text><rect x="212" y="363" width="27" height="34" rx="2" fill="#3c9e68" stroke="#21633f" stroke-width="2"/><circle cx="226" cy="380" r="8" fill="#c3cbce" stroke="#397351" stroke-width="2"/><path d="M220 376 L232 384" fill="none" stroke="#5d666c" stroke-width="2" stroke-linejoin="round" stroke-linecap="round"/><rect x="375" y="363" width="27" height="34" rx="2" fill="#3c9e68" stroke="#21633f" stroke-width="2"/><circle cx="389" cy="380" r="8" fill="#c3cbce" stroke="#397351" stroke-width="2"/><path d="M383 376 L395 384" fill="none" stroke="#5d666c" stroke-width="2" stroke-linejoin="round" stroke-linecap="round"/><text x="246" y="387" font-family="Arial,Helvetica,sans-serif" font-size="22" fill="#fff" font-weight="400" text-anchor="start">DAT</text><text x="367" y="387" font-family="Arial,Helvetica,sans-serif" font-size="22" fill="#fff" font-weight="400" text-anchor="end">!D5</text><rect x="212" y="401" width="27" height="34" rx="2" fill="#3c9e68" stroke="#21633f" stroke-width="2"/><circle cx="226" cy="418" r="8" fill="#c3cbce" stroke="#397351" stroke-width="2"/><path d="M220 414 L232 422" fill="none" stroke="#5d666c" stroke-width="2" stroke-linejoin="round" stroke-linecap="round"/><rect x="375" y="401" width="27" height="34" rx="2" fill="#3c9e68" stroke="#21633f" stroke-width="2"/><circle cx="389" cy="418" r="8" fill="#c3cbce" stroke="#397351" stroke-width="2"/><path d="M383 414 L395 422" fill="none" stroke="#5d666c" stroke-width="2" stroke-linejoin="round" stroke-linecap="round"/><text x="246" y="425" font-family="Arial,Helvetica,sans-serif" font-size="22" fill="#fff" font-weight="400" text-anchor="start">CLK</text><text x="367" y="425" font-family="Arial,Helvetica,sans-serif" font-size="22" fill="#fff" font-weight="400" text-anchor="end">C5</text><text x="306" y="253" font-family="Arial,Helvetica,sans-serif" font-size="26" fill="#292b3b" font-weight="700" text-anchor="middle">S1</text><path d="M66 151 L154 151 L154 342 L212 342" fill="none" stroke="#fbfaf6" stroke-width="9" stroke-linejoin="round" stroke-linecap="round"/><path d="M66 151 L154 151 L154 342 L212 342" fill="none" stroke="#8754ad" stroke-width="4" stroke-linejoin="round" stroke-linecap="round"/><rect x="59" y="144" width="14" height="14" rx="1" fill="#353b44" stroke="#8754ad" stroke-width="2"/><path d="M94 199 L167 199 L167 304 L212 304" fill="none" stroke="#fbfaf6" stroke-width="9" stroke-linejoin="round" stroke-linecap="round"/><path d="M94 199 L167 199 L167 304 L212 304" fill="none" stroke="#26262b" stroke-width="4" stroke-linejoin="round" stroke-linecap="round"/><rect x="87" y="192" width="14" height="14" rx="1" fill="#353b44" stroke="#26262b" stroke-width="2"/><path d="M94 271 L180 271 L180 380 L212 380" fill="none" stroke="#fbfaf6" stroke-width="9" stroke-linejoin="round" stroke-linecap="round"/><path d="M94 271 L180 271 L180 380 L212 380" fill="none" stroke="#2f6fb5" stroke-width="4" stroke-linejoin="round" stroke-linecap="round"/><rect x="87" y="264" width="14" height="14" rx="1" fill="#353b44" stroke="#2f6fb5" stroke-width="2"/><path d="M94 511 L193 511 L193 418 L212 418" fill="none" stroke="#fbfaf6" stroke-width="9" stroke-linejoin="round" stroke-linecap="round"/><path d="M94 511 L193 511 L193 418 L212 418" fill="none" stroke="#c8601d" stroke-width="4" stroke-linejoin="round" stroke-linecap="round"/><rect x="87" y="504" width="14" height="14" rx="1" fill="#353b44" stroke="#c8601d" stroke-width="2"/><text x="40" y="159" font-family="Arial,Helvetica,sans-serif" font-size="22" fill="#292b3b" font-weight="700" text-anchor="end">1</text><rect x="130.9" y="185" width="14.1" height="28" rx="3" fill="#fbfaf6" opacity=".92"/><text x="138" y="207" font-family="Arial,Helvetica,sans-serif" font-size="22" fill="#292b3b" font-weight="700" text-anchor="middle">6</text><rect x="124.9" y="257" width="26.2" height="28" rx="3" fill="#fbfaf6" opacity=".92"/><text x="138" y="279" font-family="Arial,Helvetica,sans-serif" font-size="22" fill="#292b3b" font-weight="700" text-anchor="middle">12</text><rect x="124.9" y="497" width="26.2" height="28" rx="3" fill="#fbfaf6" opacity=".92"/><text x="138" y="519" font-family="Arial,Helvetica,sans-serif" font-size="22" fill="#292b3b" font-weight="700" text-anchor="middle">32</text><text x="209" y="487" font-family="Arial,Helvetica,sans-serif" font-size="22" fill="#292b3b" font-weight="700" text-anchor="start">INPUT</text><text x="24" y="730" font-family="Arial,Helvetica,sans-serif" font-size="23" fill="#292b3b" font-weight="700" text-anchor="start">1 → S1 V</text><text x="215" y="730" font-family="Arial,Helvetica,sans-serif" font-size="23" fill="#292b3b" font-weight="700" text-anchor="start">6 → S1 G</text><text x="24" y="762" font-family="Arial,Helvetica,sans-serif" font-size="23" fill="#292b3b" font-weight="700" text-anchor="start">12 → S1 DAT</text><text x="215" y="762" font-family="Arial,Helvetica,sans-serif" font-size="23" fill="#292b3b" font-weight="700" text-anchor="start">32 → S1 CLK</text></svg>
