<svg xmlns="http://www.w3.org/2000/svg" viewBox="0 76 420 337" width="420" height="337" role="img"><title>circuits/servo-feed-connect.svg</title><defs><marker id="arrow" viewBox="0 0 10 10" refX="8" refY="5" markerWidth="7" markerHeight="7" orient="auto-start-reverse"><path d="M0 0 L10 5 L0 10z" fill="#2f6fb5"/></marker></defs><rect x="0" y="76" width="420" height="337" fill="#fbfaf6"/><text x="24" y="147" font-family="Arial,Helvetica,sans-serif" font-size="25" fill="#292b3b" font-weight="700" text-anchor="start">W1 / port 3</text><rect x="205" y="94" width="186" height="72" rx="9" fill="#e5e1d6" stroke="#8d939a" stroke-width="2"/><rect x="216" y="103" width="25" height="30" rx="4" fill="#eb8b3e" stroke="#9c5420" stroke-width="1"/><text x="228" y="125" font-family="Arial,Helvetica,sans-serif" font-size="22" fill="#292b3b" font-weight="700" text-anchor="middle">5</text><circle cx="228" cy="148" r="7" fill="#444" stroke="#8d939a" stroke-width="2"/><rect x="251" y="103" width="25" height="30" rx="4" fill="#eb8b3e" stroke="#9c5420" stroke-width="1"/><text x="263" y="125" font-family="Arial,Helvetica,sans-serif" font-size="22" fill="#292b3b" font-weight="700" text-anchor="middle">4</text><circle cx="263" cy="148" r="7" fill="#444" stroke="#8d939a" stroke-width="2"/><rect x="286" y="103" width="25" height="30" rx="4" fill="#eb8b3e" stroke="#c4302b" stroke-width="3"/><text x="298" y="125" font-family="Arial,Helvetica,sans-serif" font-size="22" fill="#292b3b" font-weight="700" text-anchor="middle">3</text><circle cx="298" cy="148" r="7" fill="#c4302b" stroke="#c4302b" stroke-width="2"/><rect x="321" y="103" width="25" height="30" rx="4" fill="#eb8b3e" stroke="#9c5420" stroke-width="1"/><text x="333" y="125" font-family="Arial,Helvetica,sans-serif" font-size="22" fill="#292b3b" font-weight="700" text-anchor="middle">2</text><circle cx="333" cy="148" r="7" fill="#444" stroke="#8d939a" stroke-width="2"/><rect x="356" y="103" width="25" height="30" rx="4" fill="#eb8b3e" stroke="#9c5420" stroke-width="1"/><text x="368" y="125" font-family="Arial,Helvetica,sans-serif" font-size="22" fill="#292b3b" font-weight="700" text-anchor="middle">1</text><circle cx="368" cy="148" r="7" fill="#444" stroke="#8d939a" stroke-width="2"/><text x="24" y="345" font-family="Arial,Helvetica,sans-serif" font-size="25" fill="#292b3b" font-weight="700" text-anchor="start">W2 / port 1</text><rect x="205" y="292" width="186" height="72" rx="9" fill="#e5e1d6" stroke="#8d939a" stroke-width="2"/><rect x="216" y="301" width="25" height="30" rx="4" fill="#eb8b3e" stroke="#9c5420" stroke-width="1"/><text x="228" y="323" font-family="Arial,Helvetica,sans-serif" font-size="22" fill="#292b3b" font-weight="700" text-anchor="middle">5</text><circle cx="228" cy="346" r="7" fill="#444" stroke="#8d939a" stroke-width="2"/><rect x="251" y="301" width="25" height="30" rx="4" fill="#eb8b3e" stroke="#9c5420" stroke-width="1"/><text x="263" y="323" font-family="Arial,Helvetica,sans-serif" font-size="22" fill="#292b3b" font-weight="700" text-anchor="middle">4</text><circle cx="263" cy="346" r="7" fill="#444" stroke="#8d939a" stroke-width="2"/><rect x="286" y="301" width="25" height="30" rx="4" fill="#eb8b3e" stroke="#9c5420" stroke-width="1"/><text x="298" y="323" font-family="Arial,Helvetica,sans-serif" font-size="22" fill="#292b3b" font-weight="700" text-anchor="middle">3</text><circle cx="298" cy="346" r="7" fill="#444" stroke="#8d939a" stroke-width="2"/><rect x="321" y="301" width="25" height="30" rx="4" fill="#eb8b3e" stroke="#9c5420" stroke-width="1"/><text x="333" y="323" font-family="Arial,Helvetica,sans-serif" font-size="22" fill="#292b3b" font-weight="700" text-anchor="middle">2</text><circle cx="333" cy="346" r="7" fill="#444" stroke="#8d939a" stroke-width="2"/><rect x="356" y="301" width="25" height="30" rx="4" fill="#eb8b3e" stroke="#c4302b" stroke-width="3"/><text x="368" y="323" font-family="Arial,Helvetica,sans-serif" font-size="22" fill="#292b3b" font-weight="700" text-anchor="middle">1</text><circle cx="368" cy="346" r="7" fill="#c4302b" stroke="#c4302b" stroke-width="2"/><path d="M298 148 L298 200 L24 200 L24 280 L392 280 L392 392 L368 392 L368 346" fill="none" stroke="#c4302b" stroke-width="7" stroke-linejoin="round" stroke-linecap="round"/><text x="60" y="251" font-family="Arial,Helvetica,sans-serif" font-size="22" fill="#292b3b" font-weight="700" text-anchor="start">W1/3 → W2/1</text></svg>
