0
SECTION
2
HEADER
9
$INSUNITS
70
4
0
ENDSEC
0
SECTION
2
ENTITIES
0
LWPOLYLINE
100
AcDbEntity
8
CUT
100
AcDbPolyline
90
8
70
1
10
0
20
-100
10
100
20
-100
10
100
20
-45
10
280
20
-45
10
280
20
45
10
100
20
45
10
100
20
100
10
0
20
100
0
CIRCLE
100
AcDbEntity
8
DRILL
100
AcDbCircle
10
37
20
-68
30
0
40
2.25
0
CIRCLE
100
AcDbEntity
8
DRILL
100
AcDbCircle
10
65
20
-68
30
0
40
2.25
0
CIRCLE
100
AcDbEntity
8
DRILL
100
AcDbCircle
10
37
20
68
30
0
40
2.25
0
CIRCLE
100
AcDbEntity
8
DRILL
100
AcDbCircle
10
65
20
68
30
0
40
2.25
0
CIRCLE
100
AcDbEntity
8
DRILL
100
AcDbCircle
10
231
20
-10
30
0
40
2.25
0
CIRCLE
100
AcDbEntity
8
DRILL
100
AcDbCircle
10
231
20
10
30
0
40
2.25
0
ENDSEC
0
EOF
